<svg width="25" height="24" viewBox="0 0 25 24" fill="none" xmlns="http://www.w3.org/2000/svg">
<g clip-path="url(#clip0_2_76)">
<path d="M12.1809 0C5.46403 0 0 5.3832 0 12C0 18.6168 5.46403 24 12.1809 24C18.8977 24 24.3623 18.6168 24.3623 12C24.3623 5.3832 18.8977 0 12.1809 0ZM12.1809 22.4262C6.34515 22.4262 1.59756 17.749 1.59756 12C1.59756 6.25098 6.34509 1.57386 12.1809 1.57386C18.0167 1.57386 22.7645 6.25104 22.7645 12C22.7646 17.749 18.0166 22.4262 12.1809 22.4262Z" fill="black"/>
<path d="M16.5911 8.07156L10.3098 14.2591L7.77071 11.7583C7.45869 11.4513 6.95323 11.4511 6.64121 11.7585C6.32907 12.066 6.32907 12.564 6.64121 12.8714L9.74515 15.9287C9.90113 16.0822 10.1055 16.159 10.3098 16.159C10.5141 16.159 10.719 16.0822 10.8749 15.9284C10.8754 15.9278 10.8758 15.9271 10.8766 15.9263L17.7205 9.18426C18.0326 8.87706 18.0326 8.3787 17.7205 8.0715C17.4085 7.76412 16.9027 7.76412 16.5911 8.07156Z" fill="black"/>
</g>
<defs>
<clipPath id="clip0_2_76">
<rect width="24.3623" height="24" fill="white"/>
</clipPath>
</defs>
</svg>
