<svg width="30" height="30" viewBox="0 0 30 30" fill="none" xmlns="http://www.w3.org/2000/svg">
<g clip-path="url(#clip0_6_108)">
<path d="M29.5484 15C29.5484 6.71572 22.8327 0 14.5484 0C6.26412 0 -0.451599 6.71572 -0.451599 15C-0.451599 22.4868 5.03365 28.6925 12.2047 29.8178V19.3359H8.39606V15H12.2047V11.6953C12.2047 7.93594 14.4441 5.85938 17.8704 5.85938C19.511 5.85938 21.2281 6.15234 21.2281 6.15234V9.84375H19.3367C17.4734 9.84375 16.8922 11.0001 16.8922 12.1875V15H21.0523L20.3873 19.3359H16.8922V29.8178C24.0631 28.6925 29.5484 22.4868 29.5484 15Z" fill="white"/>
</g>
<defs>
<clipPath id="clip0_6_108">
<rect width="30" height="30" fill="white"/>
</clipPath>
</defs>
</svg>
