<svg width="27" height="27" viewBox="0 0 27 27" fill="none" xmlns="http://www.w3.org/2000/svg">
<g clip-path="url(#clip0_33_196)">
<path d="M8.49393 24.4688C18.6801 24.4688 24.2531 16.0276 24.2531 8.70965C24.2531 8.47235 24.2478 8.22977 24.2372 7.99247C25.3214 7.20846 26.2569 6.23735 27 5.12477C25.9903 5.57399 24.9183 5.86737 23.8206 5.99489C24.9764 5.30208 25.8418 4.21372 26.2564 2.93155C25.1691 3.57594 23.98 4.0305 22.7401 4.27575C21.9047 3.38807 20.8001 2.80032 19.5971 2.60337C18.3942 2.40642 17.1598 2.61124 16.085 3.18617C15.0101 3.7611 14.1545 4.6741 13.6506 5.78404C13.1466 6.89397 13.0224 8.139 13.297 9.32665C11.0953 9.21616 8.94143 8.64423 6.97498 7.64792C5.00853 6.65162 3.2734 5.25318 1.88209 3.54327C1.17495 4.76246 0.958564 6.20516 1.27691 7.57816C1.59526 8.95117 2.42445 10.1514 3.59596 10.935C2.71646 10.9071 1.85622 10.6703 1.08633 10.2442V10.3128C1.08554 11.5922 1.52786 12.8325 2.3381 13.8227C3.14834 14.8129 4.27649 15.4919 5.53078 15.7444C4.71606 15.9673 3.86098 15.9998 3.0317 15.8393C3.38564 16.9397 4.07427 17.9021 5.00149 18.5922C5.92871 19.2823 7.04826 19.6657 8.20389 19.689C6.24198 21.2301 3.81845 22.066 1.32363 22.062C0.881198 22.0613 0.439199 22.0342 0 21.9808C2.53446 23.6068 5.48272 24.4704 8.49393 24.4688Z" fill="white"/>
</g>
<defs>
<clipPath id="clip0_33_196">
<rect width="27" height="27" fill="white"/>
</clipPath>
</defs>
</svg>
