<svg width="22" height="22" viewBox="0 0 22 22" fill="none" xmlns="http://www.w3.org/2000/svg">
<path d="M16.6283 19.8183C15.8217 20.0567 14.8683 20.1667 13.75 20.1667H8.25001C7.13167 20.1667 6.17834 20.0567 5.37167 19.8183C5.57334 17.435 8.02084 15.5558 11 15.5558C13.9792 15.5558 16.4267 17.435 16.6283 19.8183Z" stroke="#292D32" stroke-width="1.5" stroke-linecap="round" stroke-linejoin="round"/>
<path d="M13.75 1.83334H8.25001C3.66668 1.83334 1.83334 3.66668 1.83334 8.25001V13.75C1.83334 17.215 2.87834 19.1125 5.37168 19.8183C5.57334 17.435 8.02084 15.5558 11 15.5558C13.9792 15.5558 16.4267 17.435 16.6283 19.8183C19.1217 19.1125 20.1667 17.215 20.1667 13.75V8.25001C20.1667 3.66668 18.3333 1.83334 13.75 1.83334ZM11 12.9892C9.18501 12.9892 7.71834 11.5134 7.71834 9.69836C7.71834 7.88336 9.18501 6.41668 11 6.41668C12.815 6.41668 14.2817 7.88336 14.2817 9.69836C14.2817 11.5134 12.815 12.9892 11 12.9892Z" stroke="#292D32" stroke-width="1.5" stroke-linecap="round" stroke-linejoin="round"/>
<path d="M14.2817 9.69834C14.2817 11.5133 12.815 12.9891 11 12.9891C9.18499 12.9891 7.71832 11.5133 7.71832 9.69834C7.71832 7.88334 9.18499 6.41666 11 6.41666C12.815 6.41666 14.2817 7.88334 14.2817 9.69834Z" stroke="#292D32" stroke-width="1.5" stroke-linecap="round" stroke-linejoin="round"/>
</svg>
