<svg width="29" height="29" viewBox="0 0 29 29" fill="none" xmlns="http://www.w3.org/2000/svg">
<path d="M13.3505 4.04978H6.10049C3.69805 4.04978 1.75049 5.99734 1.75049 8.39978V22.8999C1.75049 25.3024 3.69805 27.2499 6.10049 27.2499H20.6005C23.0029 27.2499 24.9505 25.3024 24.9505 22.8999L24.9505 15.6498M9.00049 19.9998L14.2761 18.9368C14.5561 18.8804 14.8133 18.7424 15.0152 18.5404L26.8251 6.72404C27.3913 6.15751 27.3909 5.23919 26.8242 4.67313L24.3225 2.17421C23.756 1.60838 22.8382 1.60877 22.2722 2.17507L10.4611 13.9926C10.2595 14.1943 10.1219 14.4509 10.0654 14.7304L9.00049 19.9998Z" stroke="black" stroke-width="2" stroke-linecap="round" stroke-linejoin="round"/>
</svg>
